<svg width="72" height="72" viewBox="0 0 72 72" fill="none" xmlns="http://www.w3.org/2000/svg">
<g clip-path="url(#clip0)">
<path d="M36.0005 4.88435L45.3774 10.298L47.4924 6.63486L36.0005 0L24.5088 6.63486L26.6238 10.298L36.0005 4.88435Z" fill="#020B17"/>
<path d="M9.05322 20.4421L18.4301 15.0285L16.3151 11.3652L4.82324 18V31.2696H9.05322V20.4421Z" fill="#020B17"/>
<path d="M9.05322 40.7305H4.82324V53.9999L16.3151 60.6348L18.4301 56.9716L9.05322 51.5578V40.7305Z" fill="#020B17"/>
<path d="M36.0005 67.1157L26.6238 61.7019L24.5088 65.3652L36.0005 72.0001L47.4924 65.3652L45.3774 61.7019L36.0005 67.1157Z" fill="#020B17"/>
<path d="M62.9475 51.5578L53.5708 56.9716L55.6858 60.6348L67.1775 53.9999V40.7305H62.9475V51.5578Z" fill="#020B17"/>
<path d="M55.6858 11.3652L53.5708 15.0285L62.9475 20.4421V31.2696H67.1775V18L55.6858 11.3652Z" fill="#020B17"/>
<path d="M58.7125 49.1128V25.3292L38.1152 37.2209V61.0046L58.7125 49.1128Z" fill="#020B17"/>
<path d="M15.4023 21.6659L35.9997 33.5577L56.597 21.6659L35.9997 9.77399L15.4023 21.6659Z" fill="#020B17"/>
<path d="M13.2881 49.1128L33.8853 61.0046V37.2209L13.2881 25.3292V49.1128Z" fill="#020B17"/>
</g>
<defs>
<clipPath id="clip0">
<rect width="72" height="72" fill="white"/>
</clipPath>
</defs>
</svg>
