<svg width="131" height="130" viewBox="0 0 131 130" fill="none" xmlns="http://www.w3.org/2000/svg">
<circle cx="66" cy="63.6565" r="51" stroke="#C4C3C3" stroke-width="10"/>
<path d="M61.378 13.0157C50.7858 13.9107 40.7408 18.1044 32.6567 25.0067C24.5726 31.9091 18.8563 41.1726 16.3123 51.4936C13.7682 61.8146 14.5245 72.6735 18.4747 82.5422C22.4249 92.4109 29.3701 100.793 38.3329 106.508C47.2958 112.223 57.8251 114.984 68.4391 114.402C79.0531 113.82 89.2174 109.924 97.5016 103.263C105.786 96.6025 111.773 87.5117 114.621 77.2702C117.468 67.0288 117.032 56.1523 113.375 46.1713" stroke="#A80014" stroke-width="10" stroke-linecap="round" stroke-linejoin="round"/>
<path d="M44.5641 74.8965C42.7801 74.8965 41.3281 74.6925 40.2081 74.2845C39.0961 73.8765 38.2801 73.3205 37.7601 72.6165C37.2401 71.9125 36.9801 71.1205 36.9801 70.2405C36.9801 69.3605 37.2361 68.5725 37.7481 67.8765C38.2681 67.1725 39.0321 66.6045 40.0401 66.1725C39.0801 65.6045 38.4041 64.9525 38.0121 64.2165C37.6201 63.4725 37.4241 62.6645 37.4241 61.7925C37.4241 60.2885 38.0401 59.0565 39.2721 58.0965C40.5041 57.1365 42.3721 56.6565 44.8761 56.6565C47.0121 56.6565 48.6681 57.0565 49.8441 57.8565C51.0281 58.6565 51.6201 59.7605 51.6201 61.1685C51.6201 61.9125 51.4321 62.6285 51.0561 63.3165C50.6881 63.9965 50.0241 64.5885 49.0641 65.0925C50.2001 65.6685 50.9841 66.3205 51.4161 67.0485C51.8481 67.7765 52.0641 68.6245 52.0641 69.5925C52.0641 70.5845 51.7921 71.4805 51.2481 72.2805C50.7041 73.0805 49.8761 73.7165 48.7641 74.1885C47.6601 74.6605 46.2601 74.8965 44.5641 74.8965ZM42.2961 61.6005C42.2961 61.9125 42.3761 62.1885 42.5361 62.4285C42.7041 62.6605 43.0361 62.8925 43.5321 63.1245C44.0281 63.3565 44.7801 63.6165 45.7881 63.9045C46.2841 63.5685 46.6401 63.2205 46.8561 62.8605C47.0721 62.4925 47.1801 62.1045 47.1801 61.6965C47.1801 60.6645 46.3921 60.1485 44.8161 60.1485C43.9201 60.1485 43.2761 60.2925 42.8841 60.5805C42.4921 60.8605 42.2961 61.2005 42.2961 61.6005ZM41.8041 69.6285C41.8041 70.1885 42.0241 70.6245 42.4641 70.9365C42.9121 71.2485 43.6161 71.4045 44.5761 71.4045C45.5441 71.4045 46.2321 71.2685 46.6401 70.9965C47.0561 70.7165 47.2641 70.3445 47.2641 69.8805C47.2641 69.5365 47.1641 69.2365 46.9641 68.9805C46.7641 68.7245 46.3921 68.4805 45.8481 68.2485C45.3041 68.0165 44.5201 67.7725 43.4961 67.5165C43.4161 67.4925 43.3401 67.4725 43.2681 67.4565C42.7401 67.7525 42.3641 68.0965 42.1401 68.4885C41.9161 68.8805 41.8041 69.2605 41.8041 69.6285ZM61.4179 74.8965C59.9459 74.8965 58.6499 74.5965 57.5299 73.9965C56.4099 73.3965 55.5379 72.4685 54.9139 71.2125C54.2899 69.9485 53.9779 68.3285 53.9779 66.3525C53.9779 63.1365 54.7859 60.7165 56.4019 59.0925C58.0259 57.4685 60.3179 56.6565 63.2779 56.6565C64.0139 56.6565 64.7059 56.6965 65.3539 56.7765C66.0019 56.8565 66.6059 57.0005 67.1659 57.2085V61.1085C66.0539 60.7405 64.8499 60.5565 63.5539 60.5565C62.0819 60.5565 60.9779 60.8885 60.2419 61.5525C59.5139 62.2085 59.1099 63.1805 59.0299 64.4685C59.4779 64.2125 59.9899 64.0165 60.5659 63.8805C61.1499 63.7365 61.7379 63.6645 62.3299 63.6645C63.4179 63.6645 64.3979 63.8565 65.2699 64.2405C66.1499 64.6165 66.8459 65.2045 67.3579 66.0045C67.8779 66.8045 68.1379 67.8445 68.1379 69.1245C68.1379 70.2925 67.8699 71.3125 67.3339 72.1845C66.7979 73.0485 66.0259 73.7165 65.0179 74.1885C64.0179 74.6605 62.8179 74.8965 61.4179 74.8965ZM61.2619 67.3125C60.4379 67.3125 59.6939 67.5085 59.0299 67.9005C59.1019 69.2125 59.3499 70.0965 59.7739 70.5525C60.1979 71.0005 60.7539 71.2245 61.4419 71.2245C62.0499 71.2245 62.5379 71.0645 62.9059 70.7445C63.2819 70.4165 63.4699 69.9245 63.4699 69.2685C63.4699 68.5885 63.2699 68.0925 62.8699 67.7805C62.4699 67.4685 61.9339 67.3125 61.2619 67.3125ZM74.8628 67.8645C73.2868 67.8645 72.0068 67.3885 71.0228 66.4365C70.0468 65.4845 69.5588 64.0925 69.5588 62.2605C69.5588 60.4285 70.0468 59.0365 71.0228 58.0845C72.0068 57.1325 73.2868 56.6565 74.8628 56.6565C76.4388 56.6565 77.7148 57.1325 78.6908 58.0845C79.6748 59.0365 80.1668 60.4285 80.1668 62.2605C80.1668 64.0925 79.6748 65.4845 78.6908 66.4365C77.7148 67.3885 76.4388 67.8645 74.8628 67.8645ZM76.1948 74.6565L84.2708 56.8965H88.3628L80.2868 74.6565H76.1948ZM74.8628 64.7685C75.2548 64.7685 75.5788 64.5885 75.8348 64.2285C76.0908 63.8605 76.2188 63.2045 76.2188 62.2605C76.2188 61.3085 76.0908 60.6525 75.8348 60.2925C75.5788 59.9325 75.2548 59.7525 74.8628 59.7525C74.4708 59.7525 74.1468 59.9325 73.8908 60.2925C73.6348 60.6525 73.5068 61.3085 73.5068 62.2605C73.5068 63.2045 73.6348 63.8605 73.8908 64.2285C74.1468 64.5885 74.4708 64.7685 74.8628 64.7685ZM89.6948 74.8725C88.1188 74.8725 86.8388 74.3965 85.8548 73.4445C84.8788 72.4925 84.3908 71.1005 84.3908 69.2685C84.3908 67.4365 84.8788 66.0445 85.8548 65.0925C86.8388 64.1405 88.1188 63.6645 89.6948 63.6645C91.2708 63.6645 92.5468 64.1405 93.5228 65.0925C94.5068 66.0445 94.9988 67.4365 94.9988 69.2685C94.9988 71.1005 94.5068 72.4925 93.5228 73.4445C92.5468 74.3965 91.2708 74.8725 89.6948 74.8725ZM89.6948 71.7765C90.0868 71.7765 90.4108 71.5965 90.6668 71.2365C90.9228 70.8685 91.0508 70.2125 91.0508 69.2685C91.0508 68.3165 90.9228 67.6605 90.6668 67.3005C90.4108 66.9405 90.0868 66.7605 89.6948 66.7605C89.3028 66.7605 88.9788 66.9405 88.7228 67.3005C88.4668 67.6605 88.3388 68.3165 88.3388 69.2685C88.3388 70.2125 88.4668 70.8685 88.7228 71.2365C88.9788 71.5965 89.3028 71.7765 89.6948 71.7765Z" fill="white"/>
</svg>
