<svg width="132" height="132" viewBox="0 0 132 132" fill="none" xmlns="http://www.w3.org/2000/svg">
<circle cx="66" cy="65.6565" r="51" stroke="#C4C3C3" stroke-width="10"/>
<path d="M75.4431 15.7865C63.5969 13.4618 51.3101 15.4299 40.7827 21.3385C30.2554 27.247 22.1751 36.7101 17.9888 48.0331C13.8026 59.3561 13.7837 71.7996 17.9356 83.1352C22.0875 94.4709 30.139 103.958 40.6483 109.899C51.1577 115.839 63.4385 117.845 75.2916 115.556C87.1448 113.267 97.7962 106.834 105.338 97.4079C112.881 87.9819 116.821 76.1788 116.454 64.1123C116.088 52.0458 111.437 40.5039 103.336 31.5534" stroke="#A80014" stroke-width="10" stroke-linecap="round" stroke-linejoin="round"/>
<path d="M43.7768 58.6565C45.2488 58.6565 46.5448 58.9565 47.6648 59.5565C48.7848 60.1565 49.6568 61.0885 50.2808 62.3525C50.9048 63.6085 51.2168 65.2245 51.2168 67.2005C51.2168 70.4165 50.4048 72.8365 48.7808 74.4605C47.1648 76.0845 44.8768 76.8965 41.9168 76.8965C41.1808 76.8965 40.4888 76.8565 39.8408 76.7765C39.1928 76.6965 38.5888 76.5525 38.0288 76.3445V72.4445C39.1408 72.8125 40.3448 72.9965 41.6408 72.9965C43.1128 72.9965 44.2128 72.6685 44.9408 72.0125C45.6768 71.3485 46.0848 70.3725 46.1648 69.0845C45.7168 69.3405 45.2008 69.5405 44.6168 69.6845C44.0408 69.8205 43.4568 69.8885 42.8648 69.8885C41.7768 69.8885 40.7928 69.7005 39.9128 69.3245C39.0408 68.9405 38.3448 68.3485 37.8248 67.5485C37.3128 66.7485 37.0568 65.7085 37.0568 64.4285C37.0568 63.2605 37.3248 62.2445 37.8608 61.3805C38.3968 60.5085 39.1648 59.8365 40.1648 59.3645C41.1728 58.8925 42.3768 58.6565 43.7768 58.6565ZM43.9328 66.2405C44.7568 66.2405 45.5008 66.0445 46.1648 65.6525C46.0928 64.3405 45.8448 63.4605 45.4208 63.0125C44.9968 62.5565 44.4408 62.3285 43.7528 62.3285C43.1448 62.3285 42.6528 62.4925 42.2768 62.8205C41.9088 63.1405 41.7248 63.6285 41.7248 64.2845C41.7248 64.9645 41.9248 65.4605 42.3248 65.7725C42.7248 66.0845 43.2608 66.2405 43.9328 66.2405ZM52.7663 73.4045V70.5845L58.4903 58.8965H63.4343L58.3703 69.4445H61.3103L61.7903 64.8965H65.9423V69.4445H68.0903V73.4045H65.9423V76.6565H61.3103V73.4045H52.7663ZM74.5581 69.8645C72.9821 69.8645 71.7021 69.3885 70.7181 68.4365C69.7421 67.4845 69.2541 66.0925 69.2541 64.2605C69.2541 62.4285 69.7421 61.0365 70.7181 60.0845C71.7021 59.1325 72.9821 58.6565 74.5581 58.6565C76.1341 58.6565 77.4101 59.1325 78.3861 60.0845C79.3701 61.0365 79.8621 62.4285 79.8621 64.2605C79.8621 66.0925 79.3701 67.4845 78.3861 68.4365C77.4101 69.3885 76.1341 69.8645 74.5581 69.8645ZM75.8901 76.6565L83.9661 58.8965H88.0581L79.9821 76.6565H75.8901ZM74.5581 66.7685C74.9501 66.7685 75.2741 66.5885 75.5301 66.2285C75.7861 65.8605 75.9141 65.2045 75.9141 64.2605C75.9141 63.3085 75.7861 62.6525 75.5301 62.2925C75.2741 61.9325 74.9501 61.7525 74.5581 61.7525C74.1661 61.7525 73.8421 61.9325 73.5861 62.2925C73.3301 62.6525 73.2021 63.3085 73.2021 64.2605C73.2021 65.2045 73.3301 65.8605 73.5861 66.2285C73.8421 66.5885 74.1661 66.7685 74.5581 66.7685ZM89.3901 76.8725C87.8141 76.8725 86.5341 76.3965 85.5501 75.4445C84.5741 74.4925 84.0861 73.1005 84.0861 71.2685C84.0861 69.4365 84.5741 68.0445 85.5501 67.0925C86.5341 66.1405 87.8141 65.6645 89.3901 65.6645C90.9661 65.6645 92.2421 66.1405 93.2181 67.0925C94.2021 68.0445 94.6941 69.4365 94.6941 71.2685C94.6941 73.1005 94.2021 74.4925 93.2181 75.4445C92.2421 76.3965 90.9661 76.8725 89.3901 76.8725ZM89.3901 73.7765C89.7821 73.7765 90.1061 73.5965 90.3621 73.2365C90.6181 72.8685 90.7461 72.2125 90.7461 71.2685C90.7461 70.3165 90.6181 69.6605 90.3621 69.3005C90.1061 68.9405 89.7821 68.7605 89.3901 68.7605C88.9981 68.7605 88.6741 68.9405 88.4181 69.3005C88.1621 69.6605 88.0341 70.3165 88.0341 71.2685C88.0341 72.2125 88.1621 72.8685 88.4181 73.2365C88.6741 73.5965 88.9981 73.7765 89.3901 73.7765Z" fill="white"/>
</svg>
