<svg width="64" height="64" viewBox="0 0 64 64" fill="none" xmlns="http://www.w3.org/2000/svg">
<g clip-path="url(#clip0)">
<path d="M31.982 8.43648C18.032 -3.76484 0.294704 6.95559 0.00385088 21.4889C-0.0702685 25.1927 0.9989 28.8006 3.12711 32.1267H16.9216L19.3751 28.0372C20.0876 26.85 21.8117 26.8117 22.5645 27.9954L27.7412 36.1301L35.2873 20.2C35.9454 18.8099 37.9066 18.7658 38.6324 20.1137L45.1009 32.1267H60.837C72.4938 13.9081 49.456 -6.84673 31.982 8.43648Z" fill="#020B17"/>
<path d="M42.3304 34.8903L37.0888 25.1559L29.6767 40.8035C29.0461 42.1348 27.1914 42.2504 26.4006 41.0075L21.0298 32.5678L19.5907 34.9661C19.2519 35.5308 18.6417 35.8763 17.9831 35.8763H6.09302C6.46574 36.2664 4.47927 34.2839 30.6596 60.3286C31.3908 61.0562 32.5729 61.0563 33.3042 60.3286C59.0817 34.6846 57.4989 36.2656 57.8708 35.8763H43.9811C43.2913 35.8764 42.6574 35.4977 42.3304 34.8903Z" fill="#020B17"/>
</g>
<defs>
<clipPath id="clip0">
<rect width="64" height="64" fill="white"/>
</clipPath>
</defs>
</svg>
