<svg width="72" height="72" viewBox="0 0 72 72" fill="none" xmlns="http://www.w3.org/2000/svg">
<g clip-path="url(#clip0)">
<path d="M50.2041 35.757C49.7647 36.1963 49.7647 36.9085 50.2039 37.348L50.4007 37.5449C50.8398 37.984 51.5522 37.9844 51.9916 37.5451C52.4311 37.1058 52.4311 36.3936 51.9919 35.9541L51.795 35.7572C51.356 35.3179 50.6436 35.3176 50.2041 35.757Z" fill="#020B17"/>
<path d="M54.5695 41.2565C61.5199 41.3116 62.2609 41.8014 66.5269 37.5352C66.9663 37.0957 66.9663 36.3834 66.5269 35.9441C66.0876 35.505 65.3753 35.505 64.936 35.9441C61.4121 39.4682 61.4081 39.0608 55.0259 39.0102C54.5864 38.6976 53.9731 38.7383 53.5791 39.1321C53.1396 39.5715 53.1396 40.2838 53.5791 40.7231C53.8356 40.9798 54.0652 41.2526 54.5695 41.2565Z" fill="#020B17"/>
<path d="M5.47168 35.9439C5.03223 36.3834 5.03223 37.0955 5.47168 37.535C7.65345 39.7167 9.22984 41.3073 12.838 41.2931C17.7619 41.2736 17.5373 41.2848 17.8045 41.1878C18.1369 41.0669 17.4507 41.6925 25.8227 33.3198C26.3207 32.8217 26.8417 32.6753 27.5084 32.6404C27.5456 32.6448 44.4547 32.6451 44.493 32.6406C45.1576 32.6713 45.6824 32.8253 46.1769 33.3193C47.0267 34.1684 47.2362 34.4996 47.8232 34.4996C48.8161 34.4996 49.3297 33.2901 48.6187 32.5791C46.0752 30.0359 45.9634 30.3934 40.9201 30.3934C41.5423 29.6357 41.6634 29.2332 42.6135 27.0737C43.4986 25.0621 43.9812 22.8702 43.9812 20.6102C43.9812 18.1096 42.6483 15.9117 40.553 14.5658C40.553 12.575 40.7772 11.0057 39.2201 9.44159C36.3564 6.58426 31.4464 8.63427 31.4464 12.6623V14.5658C29.3513 15.9113 28.0183 18.1099 28.0183 20.6102C28.0183 22.8322 28.4769 25.0076 29.3866 27.0754C30.3037 29.1598 30.4497 29.6267 31.0795 30.3935C30.6598 30.3935 27.2247 30.3939 27.4497 30.3935C26.2339 30.3956 25.0911 30.87 24.232 31.729L16.9505 39.0105C10.6348 39.0607 10.6015 39.4826 7.06311 35.9441C6.62324 35.5048 5.91098 35.5048 5.47168 35.9439ZM32.3278 28.17C31.3464 25.9412 30.563 24.4456 30.3259 21.8585C33.0515 18.212 38.9491 18.2176 41.6726 21.8575C41.4353 24.4356 40.6487 25.9498 39.6706 28.171C38.3706 31.1234 33.628 31.1229 32.3278 28.17Z" fill="#020B17"/>
<path d="M24.5089 16.6522C17.8474 20.6159 13.6283 27.7565 13.5026 35.6359C13.4926 36.2631 13.9979 36.7789 14.6277 36.7789C15.2406 36.7789 15.7424 36.287 15.7523 35.6719C15.8651 28.5973 19.5687 22.21 25.6595 18.5857C26.1934 18.2679 26.3687 17.5776 26.051 17.0437C25.7335 16.5099 25.0429 16.3349 24.5089 16.6522Z" fill="#020B17"/>
<path d="M22.2289 53.4724C23.2718 53.4724 23.758 52.1633 22.9537 51.4865C22.4696 51.0792 21.9991 50.6439 21.5554 50.1922C21.1202 49.7491 20.4079 49.7427 19.9645 50.178C19.5213 50.6135 19.515 51.3258 19.9505 51.7689C20.4439 52.2712 20.9671 52.7555 21.5054 53.2082C21.7162 53.3858 21.9732 53.4724 22.2289 53.4724Z" fill="#020B17"/>
<path d="M50.4431 50.1923C49.9948 50.6486 49.5249 51.0841 49.0463 51.4866C48.5709 51.8867 48.5097 52.5963 48.9096 53.0716C49.3096 53.5472 50.0193 53.6082 50.4947 53.2084C51.0276 52.7602 51.5501 52.2759 52.0481 51.7691C52.4836 51.326 52.4773 50.6136 52.034 50.1782C51.5909 49.7428 50.8787 49.7492 50.4431 50.1923Z" fill="#020B17"/>
<path d="M57.3717 36.7789C58.0014 36.7789 58.5068 36.2634 58.4968 35.6359C58.3712 27.7612 54.1558 20.6182 47.4905 16.6522C46.9564 16.3342 46.2661 16.5096 45.9484 17.0437C45.6307 17.5776 45.806 18.2679 46.3399 18.5858C52.4307 22.2099 56.1342 28.5973 56.2471 35.6719C56.257 36.287 56.7587 36.7789 57.3717 36.7789Z" fill="#020B17"/>
<path d="M58.5285 50.8831C57.8587 51.8959 57.1178 52.8671 56.3261 53.7699C55.9164 54.2369 55.963 54.9478 56.4301 55.3574C56.896 55.766 57.607 55.7216 58.0178 55.2533C58.8665 54.2855 59.6402 53.2314 60.3804 52.162C60.5104 51.9742 60.5926 51.7494 60.5926 51.5037C60.5926 50.3905 59.141 49.9575 58.5285 50.8831Z" fill="#020B17"/>
<path d="M30.213 8.44918C30.0615 7.84675 29.4508 7.48085 28.8478 7.63216C17.1784 10.5647 8.39914 20.4395 6.95874 32.4916C6.88505 33.1085 7.32534 33.6683 7.94226 33.7422C8.55566 33.8166 9.11871 33.3778 9.19282 32.7586C10.5096 21.7406 18.6288 12.5202 29.3961 9.8145C29.9986 9.6629 30.3643 9.05175 30.213 8.44918Z" fill="#020B17"/>
<path d="M42.6119 9.81556C53.3746 12.5241 61.4904 21.7441 62.807 32.7584C62.8753 33.3299 63.3609 33.7501 63.9227 33.7501C64.6008 33.7501 65.1208 33.1587 65.041 32.4915C63.6023 20.4549 54.8359 10.5714 43.161 7.63364C42.5584 7.48205 41.9471 7.84739 41.7956 8.45011C41.6438 9.05268 42.0093 9.66397 42.6119 9.81556Z" fill="#020B17"/>
<path d="M14.8279 55.6366C15.7873 55.6366 16.3108 54.4968 15.6732 53.7699C14.8816 52.8671 14.1405 51.896 13.4707 50.8832C13.1279 50.3648 12.4301 50.2229 11.9118 50.5654C11.3936 50.9082 11.2513 51.606 11.594 52.1243C12.3197 53.2218 13.123 54.2745 13.9815 55.2534C14.2041 55.5069 14.5152 55.6366 14.8279 55.6366Z" fill="#020B17"/>
<path d="M66.2294 51.0222C65.0183 53.4553 63.5087 55.7441 61.7424 57.8253C61.3403 58.2991 61.3985 59.009 61.8722 59.411C62.3438 59.8112 63.054 59.757 63.4578 59.2812C65.3415 57.0616 66.9517 54.6201 68.2436 52.0246C68.5205 51.4684 68.2939 50.793 67.7378 50.5161C67.1817 50.2397 66.5063 50.466 66.2294 51.0222Z" fill="#020B17"/>
<path d="M1.1276 37.5665C1.75464 37.5665 2.25891 37.055 2.25273 36.4304C2.06753 17.2187 17.5907 2.25028 35.9996 2.25028C54.4498 2.25028 69.9312 17.2599 69.7464 36.4304C69.7403 37.0549 70.2445 37.5665 70.8716 37.5665C71.4876 37.5665 71.9902 37.0701 71.9963 36.4526C72.2017 16.0663 55.8177 0.000305176 35.9996 0.000305176C16.2105 0.000305176 -0.202843 16.0391 0.00288983 36.4526C0.00893665 37.0702 0.511385 37.5665 1.1276 37.5665Z" fill="#020B17"/>
<path d="M9.39991 59.6769C10.3472 59.6769 10.8808 58.5584 10.2569 57.8236C8.48908 55.742 6.97905 53.4537 5.76869 51.022C5.4918 50.466 4.81665 50.2398 4.2602 50.5162C3.70389 50.7931 3.47748 51.4684 3.75437 52.0248C5.04573 54.619 6.65645 57.0601 8.54181 59.2802C8.76442 59.5422 9.08111 59.6769 9.39991 59.6769Z" fill="#020B17"/>
<path d="M70.8743 69.7496H59.0528C62.6086 66.0694 61.4116 59.987 56.7526 57.9164C56.6522 57.8718 57.3401 58.0777 45.6964 54.6732C45.7027 51.3295 45.707 46.4977 46.4296 43.2694L48.9179 45.7578C50.4085 47.2482 52.3895 48.0778 54.497 48.0949C57.6055 48.1524 67.3448 48.1488 67.3594 48.1488C71.4752 48.1488 73.5346 43.2558 70.6665 40.3734C69.8043 39.5155 68.6605 39.043 67.4458 39.043C66.8245 39.043 66.3208 39.5467 66.3208 40.168C66.3208 40.7892 66.8245 41.293 67.4458 41.293C68.0616 41.293 68.6418 41.5329 69.0755 41.9643C70.5381 43.4342 69.4662 45.8988 67.3594 45.8988C60.5106 45.8988 63.9088 45.9096 54.5227 45.8452C53.0065 45.8348 51.5812 45.2389 50.5091 44.1666C48.5614 42.219 47.5536 41.2108 45.6027 39.2601C45.1635 38.8211 44.4513 38.8211 44.0118 39.2601C43.5724 39.6994 43.5724 40.4117 44.0118 40.8511L44.5752 41.4145C43.6366 44.8775 43.4737 47.7307 43.4472 54.3905C27.3994 54.3905 28.5518 54.4157 28.5511 54.3396C28.5348 48.375 28.3942 44.9925 27.4248 41.4145L27.9882 40.8511C28.4276 40.4117 28.4276 39.6994 27.9882 39.2601C27.5489 38.8209 26.8366 38.8209 26.3973 39.2601L25.3906 40.2668C21.8369 43.6208 20.7641 45.8226 17.4771 45.8451C8.0763 45.9096 11.034 45.8987 4.64044 45.8987C3.33264 45.8987 2.26052 44.8741 2.2504 43.6148C2.24013 42.3174 3.28314 41.2928 4.5541 41.2928C5.17537 41.2928 5.67909 40.7891 5.67909 40.1678C5.67909 39.5465 5.17537 39.0428 4.5541 39.0428C2.02934 39.0428 -0.0198279 41.0889 0.000562495 43.6327C0.0203904 46.1228 2.10176 48.1486 4.64044 48.1486C12.771 48.1486 16.395 48.0951 17.491 48.0951C19.506 48.0951 21.5442 47.2951 23.0818 45.7576L25.57 43.2694C26.2845 46.463 26.2882 50.9437 26.3025 54.6734C14.608 58.0927 15.3523 57.8697 15.2471 57.9164C10.596 59.9837 9.38635 66.0647 12.9469 69.7496H1.12499C0.503714 69.7496 0 70.2533 0 70.8746C0 71.4958 0.503714 71.9995 1.12499 71.9995H70.8743C71.4956 71.9995 71.9993 71.4958 71.9993 70.8746C71.9993 70.2533 71.4956 69.7496 70.8743 69.7496ZM23.1241 65.7528L27.5264 66.8534C26.3155 67.4587 25.0643 67.9516 24.5362 69.7497H23.1241V65.7528ZM27.047 69.7496C27.4897 69.2461 30.4315 67.9804 31.3101 67.4737C31.3952 67.4249 31.204 67.5482 33.1391 66.2589C34.3278 65.4638 36.0811 65.9239 36.5716 67.3982L36.6813 67.7287C36.8665 68.2871 37.4506 68.6087 38.0218 68.4657L48.8751 65.7525V69.7496H27.047Z" fill="#020B17"/>
</g>
<defs>
<clipPath id="clip0">
<rect width="72" height="72" fill="white"/>
</clipPath>
</defs>
</svg>
