<svg width="40" height="40" viewBox="0 0 40 40" fill="none" xmlns="http://www.w3.org/2000/svg">
<path d="M29.2159 24.344C29.2159 26.024 29.6939 26.694 30.9439 26.694C33.7299 26.694 35.5039 23.144 35.5039 17.24C35.5039 8.21602 28.9279 3.89602 20.7179 3.89602C12.2719 3.89602 4.5899 9.56002 4.5899 20.264C4.5899 30.488 11.3099 36.056 21.6299 36.056C25.1339 36.056 27.4859 35.672 31.0839 34.472L31.8559 37.686C28.3039 38.84 24.5079 39.174 21.5819 39.174C8.0459 39.174 0.795898 31.734 0.795898 20.262C0.795898 8.69402 9.1979 0.822021 20.7659 0.822021C32.8139 0.822021 39.1959 8.02202 39.1959 16.854C39.1959 24.342 36.8459 30.054 29.4539 30.054C26.0919 30.054 23.8859 28.71 23.5979 25.732C22.7339 29.044 20.4299 30.054 17.3079 30.054C13.1319 30.054 9.6279 26.836 9.6279 20.358C9.6279 13.83 12.7019 9.79802 18.2219 9.79802C21.1499 9.79802 22.9739 10.95 23.7859 12.774L25.1799 10.23H29.2119V24.344H29.2159ZM23.3139 18.008C23.3139 15.37 21.3439 14.264 19.7119 14.264C17.9359 14.264 15.9699 15.702 15.9699 19.928C15.9699 23.288 17.4579 25.16 19.7119 25.16C21.2959 25.16 23.3139 24.152 23.3139 21.368V18.008Z" fill="#FEFEFE"/>
</svg>
