<svg width="35" height="40" viewBox="0 0 35 40" fill="none" xmlns="http://www.w3.org/2000/svg">
<g clip-path="url(#clip0)">
<path d="M31.25 2.5H3.75C2.75544 2.5 1.80161 2.89509 1.09835 3.59835C0.395088 4.30161 0 5.25544 0 6.25L0 33.75C0 34.7446 0.395088 35.6984 1.09835 36.4016C1.80161 37.1049 2.75544 37.5 3.75 37.5H31.25C32.2446 37.5 33.1984 37.1049 33.9016 36.4016C34.6049 35.6984 35 34.7446 35 33.75V6.25C35 5.25544 34.6049 4.30161 33.9016 3.59835C33.1984 2.89509 32.2446 2.5 31.25 2.5ZM29.9695 26.5133L28.7977 31.5914C28.7381 31.8496 28.5929 32.08 28.3856 32.245C28.1783 32.41 27.9212 32.4999 27.6562 32.5C15.1562 32.5 5 22.3664 5 9.84375C5.0093 9.58129 5.10259 9.32875 5.26615 9.12328C5.42971 8.91781 5.65491 8.77026 5.90859 8.70234L10.9867 7.53047C11.0733 7.51215 11.1615 7.50195 11.25 7.5C11.4766 7.51144 11.696 7.58333 11.8855 7.70821C12.0749 7.83309 12.2275 8.0064 12.3273 8.21016L14.6711 13.6789C14.7285 13.8264 14.7605 13.9825 14.7656 14.1406C14.7465 14.4875 14.5923 14.8132 14.3359 15.0477L11.3758 17.4695C13.1694 21.271 16.229 24.3306 20.0305 26.1242L22.4523 23.1641C22.6868 22.9077 23.0125 22.7535 23.3594 22.7344C23.5175 22.7395 23.6737 22.7714 23.8211 22.8289L29.2898 25.1727C29.4937 25.2724 29.6671 25.4249 29.792 25.6144C29.9169 25.8039 29.9887 26.0233 30 26.25C29.9984 26.3385 29.9882 26.4267 29.9695 26.5133Z" fill="#FEFEFE"/>
</g>
<defs>
<clipPath id="clip0">
<rect width="35" height="40" fill="white"/>
</clipPath>
</defs>
</svg>
