<svg width="64" height="58" viewBox="0 0 64 58" fill="none" xmlns="http://www.w3.org/2000/svg">
<path d="M58.9229 6.07227C55.6099 2.479 51.064 0.5 46.1216 0.5C42.4272 0.5 39.0439 1.66797 36.0654 3.97119C34.5625 5.13379 33.2007 6.55615 32 8.21631C30.7998 6.55664 29.4375 5.13379 27.9341 3.97119C24.9561 1.66797 21.5728 0.5 17.8784 0.5C12.936 0.5 8.38965 2.479 5.07666 6.07227C1.80322 9.62354 0 14.4751 0 19.7339C0 25.1465 2.01709 30.1011 6.34766 35.3267C10.2217 40.001 15.7896 44.7461 22.2373 50.2407C24.439 52.1172 26.9346 54.2441 29.5259 56.5098C30.2104 57.1094 31.0889 57.4395 32 57.4395C32.9106 57.4395 33.7896 57.1094 34.4731 56.5107C37.0645 54.2446 39.5615 52.1167 41.7642 50.2393C48.2109 44.7456 53.7788 40.001 57.6528 35.3262C61.9834 30.1011 64 25.1465 64 19.7334C64 14.4751 62.1968 9.62354 58.9229 6.07227Z" fill="#020B17"/>
</svg>
