<svg width="35" height="36" viewBox="0 0 35 36" fill="none" xmlns="http://www.w3.org/2000/svg">
<path d="M31.25 0.5H3.75C2.75544 0.5 1.80161 0.895088 1.09835 1.59835C0.395088 2.30161 0 3.25544 0 4.25L0 31.75C0 32.7446 0.395088 33.6984 1.09835 34.4016C1.80161 35.1049 2.75544 35.5 3.75 35.5H31.25C32.2446 35.5 33.1984 35.1049 33.9016 34.4016C34.6049 33.6984 35 32.7446 35 31.75V4.25C35 3.25544 34.6049 2.30161 33.9016 1.59835C33.1984 0.895088 32.2446 0.5 31.25 0.5ZM29.9695 24.5133L28.7977 29.5914C28.7381 29.8496 28.5929 30.08 28.3856 30.245C28.1783 30.41 27.9212 30.4999 27.6562 30.5C15.1562 30.5 5 20.3664 5 7.84375C5.0093 7.58129 5.10259 7.32875 5.26615 7.12328C5.42971 6.91781 5.65491 6.77026 5.90859 6.70234L10.9867 5.53047C11.0733 5.51215 11.1615 5.50195 11.25 5.5C11.4766 5.51144 11.696 5.58333 11.8855 5.70821C12.0749 5.83309 12.2275 6.0064 12.3273 6.21016L14.6711 11.6789C14.7285 11.8264 14.7605 11.9825 14.7656 12.1406C14.7465 12.4875 14.5923 12.8132 14.3359 13.0477L11.3758 15.4695C13.1694 19.271 16.229 22.3306 20.0305 24.1242L22.4523 21.1641C22.6868 20.9077 23.0125 20.7535 23.3594 20.7344C23.5175 20.7395 23.6737 20.7714 23.8211 20.8289L29.2898 23.1727C29.4937 23.2724 29.6671 23.4249 29.792 23.6144C29.9169 23.8039 29.9887 24.0233 30 24.25C29.9984 24.3385 29.9882 24.4267 29.9695 24.5133Z" fill="#FEFEFE"/>
</svg>
