<svg width="109" height="105" viewBox="0 0 109 105" fill="none" xmlns="http://www.w3.org/2000/svg">
<path d="M24.4 105C8.66667 105 0.800001 95.4667 0.800001 76.4C0.800001 62.6667 2.6 49.3333 6.2 36.4C9.93333 23.3333 14.6 11.4667 20.2 0.799989H38.2C34.2 11.8666 30.9333 22.3333 28.4 32.2C25.8667 41.9333 24.3333 51.6667 23.8 61.4C29.8 61.6666 34.7333 63.8 38.6 67.8C42.6 71.6667 44.6 76.8666 44.6 83.4C44.6 90.0667 42.6667 95.3333 38.8 99.2C34.9333 103.067 30.1333 105 24.4 105ZM88.6 105C72.8667 105 65 95.4667 65 76.4C65 62.6667 66.8 49.3333 70.4 36.4C74.1333 23.3333 78.8 11.4667 84.4 0.799989H102.4C98.4 11.8666 95.1333 22.3333 92.6 32.2C90.0667 41.9333 88.5333 51.6667 88 61.4C94 61.6666 98.9333 63.8 102.8 67.8C106.8 71.6667 108.8 76.8666 108.8 83.4C108.8 90.0667 106.867 95.3333 103 99.2C99.1333 103.067 94.3333 105 88.6 105Z" fill="#040810"/>
</svg>
