<svg width="64" height="64" viewBox="0 0 64 64" fill="none" xmlns="http://www.w3.org/2000/svg">
<g clip-path="url(#clip0)">
<path d="M43.3553 59.4157C42.3406 60.8033 41.1938 62.0244 40.0752 63.0607C42.3781 63.7433 44.1239 63.9708 44.2442 63.9859C44.2731 63.9895 45.2786 64.1529 45.9597 63.2752C46.0339 63.1794 47.1074 61.7842 48.2529 59.6734C47.8871 59.6878 47.5129 59.6958 47.1323 59.6958C45.8134 59.6957 44.5512 59.6019 43.3553 59.4157Z" fill="#020B17"/>
<path d="M20.6448 59.4157C19.4491 59.6018 18.1867 59.6956 16.8681 59.6957C16.4874 59.6957 16.1133 59.6878 15.7476 59.6734C16.8931 61.7842 17.9664 63.1794 18.0407 63.2752C18.7218 64.1528 19.7272 63.9896 19.7562 63.9859C19.8763 63.9708 21.6221 63.7434 23.9248 63.0608C22.8062 62.0246 21.6596 60.8036 20.6448 59.4157Z" fill="#020B17"/>
<path d="M0.940003 40.0764C0.257503 42.3788 0.029878 44.124 0.014753 44.2443C-0.068122 44.9017 0.202128 45.554 0.725628 45.9602C0.821378 46.0344 2.21638 47.1074 4.32688 48.2525C4.26863 46.729 4.32125 45.0548 4.58513 43.3559C3.19725 42.3413 1.97613 41.1948 0.940003 40.0764Z" fill="#020B17"/>
<path d="M63.0599 40.076C62.0237 41.1945 60.8027 42.3411 59.415 43.3557C59.6789 45.0546 59.7315 46.7289 59.6734 48.2524C61.7839 47.1072 63.1788 46.0344 63.2744 45.9601C63.7979 45.5539 64.0682 44.9016 63.9853 44.2442C63.9701 44.1241 63.7426 42.3786 63.0599 40.076Z" fill="#020B17"/>
<path d="M0.939973 23.9242C1.9761 22.8058 3.19722 21.6592 4.58522 20.6445C4.32135 18.9456 4.2686 17.2713 4.32672 15.7478C2.2161 16.8933 0.821098 17.9667 0.725348 18.041C0.201973 18.4472 -0.0680266 19.0993 0.0147234 19.7566C0.0298484 19.877 0.257473 21.6221 0.939973 23.9242Z" fill="#020B17"/>
<path d="M63.0598 23.9238C63.7422 21.622 63.9697 19.877 63.9848 19.7567C64.0677 19.0995 63.7975 18.4472 63.2742 18.0411C63.1784 17.9668 61.7834 16.8933 59.6727 15.7478C59.7309 17.2715 59.6783 18.9457 59.4146 20.6445C60.8027 21.6591 62.0238 22.8056 63.0598 23.9238Z" fill="#020B17"/>
<path d="M20.645 4.58436C21.6595 3.19699 22.8058 1.97624 23.9239 0.940237C21.6219 0.257737 19.8769 0.0299874 19.7567 0.0148624C19.0993 -0.0683876 18.447 0.202112 18.0407 0.725487C17.9664 0.821237 16.8933 2.21611 15.748 4.32661C16.1138 4.31224 16.4877 4.30436 16.8682 4.30436C18.1869 4.30436 19.4492 4.39811 20.645 4.58436Z" fill="#020B17"/>
<path d="M43.3546 4.58451C44.5504 4.39826 45.8127 4.30451 47.1315 4.30451C47.512 4.30451 47.886 4.31251 48.2517 4.32676C47.1063 2.21626 46.0331 0.821264 45.9588 0.725514C45.5527 0.202139 44.9009 -0.0682363 44.2428 0.0148887C44.1227 0.0300137 42.3774 0.257764 40.0752 0.940514C41.1936 1.97651 42.3401 3.19726 43.3546 4.58451Z" fill="#020B17"/>
<path d="M32.0001 8.22211C33.088 7.62886 34.2896 7.11461 35.5952 6.68424C37.3123 6.11811 38.7947 5.84124 39.4887 5.73061C36.6844 2.41499 33.14 0.366486 32.9287 0.245986C32.3532 -0.0820142 31.6472 -0.0821391 31.0716 0.245986C30.8603 0.366486 27.316 2.41499 24.5117 5.73061C25.2066 5.84136 26.6891 6.11836 28.4053 6.68424C29.7106 7.11461 30.9122 7.62899 32.0001 8.22211Z" fill="#020B17"/>
<path d="M11.557 16.6415C12.7844 16.0226 13.9978 15.5366 15.1865 15.1866C15.5364 13.998 16.0225 12.7845 16.6414 11.5571C17.4564 9.94059 18.3075 8.69846 18.7202 8.12959C14.3927 7.76809 10.4379 8.82596 10.2033 8.89021C9.56441 9.06521 9.06516 9.56446 8.89016 10.2033C8.82591 10.438 7.76828 14.3926 8.12978 18.7201C8.69803 18.3078 9.94053 17.4565 11.557 16.6415Z" fill="#020B17"/>
<path d="M45.2798 8.12978C45.6925 8.69915 46.5447 9.94315 47.3585 11.557C47.9775 12.7847 48.4635 13.9979 48.8135 15.1868C50.0023 15.5367 51.2155 16.0228 52.4429 16.6417C54.059 17.4564 55.3014 18.3077 55.8703 18.7202C56.2318 14.3928 55.174 10.438 55.1098 10.2034C54.9349 9.56453 54.4357 9.06528 53.7968 8.89028C53.5622 8.82603 49.6072 7.76828 45.2798 8.12978Z" fill="#020B17"/>
<path d="M6.68434 28.4049C6.11809 26.6872 5.84134 25.2057 5.73084 24.5117C2.41522 27.3161 0.366594 30.8601 0.246094 31.0715C-0.0820312 31.647 -0.0820312 32.353 0.246094 32.9285C0.366594 33.1399 2.41497 36.6844 5.73072 39.4888C5.84122 38.7949 6.11797 37.3132 6.68434 35.5951C7.11459 34.2896 7.62897 33.0879 8.22209 32C7.62897 30.9121 7.11459 29.7104 6.68434 28.4049Z" fill="#020B17"/>
<path d="M63.7543 32.9285C64.0823 32.353 64.0823 31.647 63.7542 31.0715C63.6338 30.8603 61.5853 27.3163 58.2697 24.5119C58.1596 25.2047 57.8833 26.6839 57.3161 28.4049C56.8858 29.7103 56.3714 30.912 55.7783 32C56.3714 33.088 56.8857 34.2898 57.3161 35.5953C57.8832 37.3157 58.1593 38.7944 58.2698 39.4888C61.5853 36.6844 63.6338 33.1399 63.7543 32.9285Z" fill="#020B17"/>
<path d="M52.4433 47.3589C51.2158 47.9779 50.0023 48.464 48.8135 48.814C48.4635 50.0026 47.9775 51.2159 47.3587 52.4434C46.5459 54.0553 45.6917 55.302 45.2798 55.8705C49.6072 56.232 53.5622 55.1741 53.7968 55.11C54.4357 54.935 54.9348 54.4358 55.1098 53.7969C55.174 53.5623 56.2318 49.6075 55.8703 45.28C55.3004 45.693 54.0562 46.5455 52.4433 47.3589Z" fill="#020B17"/>
<path d="M32.0001 55.7783C30.912 56.3714 29.7103 56.8857 28.4047 57.3159C26.6876 57.8819 25.2055 58.1588 24.5117 58.2693C27.3161 61.5849 30.8603 63.6334 31.0716 63.7538C31.3595 63.9179 31.6797 63.9999 32.0002 63.9999C32.3206 63.9999 32.641 63.9179 32.9288 63.7539C33.1401 63.6334 36.6845 61.5849 39.4888 58.2693C38.7945 58.1587 37.3131 57.8819 35.5956 57.3159C34.29 56.8857 33.088 56.3713 32.0001 55.7783Z" fill="#020B17"/>
<path d="M18.72 55.8703C18.3075 55.3017 17.4562 54.0595 16.6415 52.4435C16.0226 51.2161 15.5365 50.0026 15.1866 48.8138C13.9978 48.464 12.7842 47.9777 11.5568 47.3587C9.9452 46.5461 8.69832 45.6916 8.12982 45.2796C7.7682 49.6071 8.82595 53.5619 8.8902 53.7966C9.0652 54.4354 9.56445 54.9347 10.2033 55.1097C10.4377 55.1741 14.3926 56.2317 18.72 55.8703Z" fill="#020B17"/>
<path d="M54.6073 23.6409C54.6902 22.9835 54.4201 22.3312 53.8966 21.9251C53.8438 21.8841 52.5838 20.9121 50.7548 19.99C48.9614 19.0859 47.2544 18.5352 45.6564 18.3436C45.4651 16.7457 44.9144 15.0386 44.0103 13.2454C43.0881 11.4164 42.1159 10.1562 42.0751 10.1035C41.6688 9.58012 41.0164 9.30975 40.3593 9.39275C40.2931 9.40112 38.7144 9.6045 36.7689 10.2459C34.8616 10.8746 33.2652 11.6925 31.9999 12.6872C30.7346 11.6925 29.1382 10.8746 27.2309 10.2459C25.2856 9.6045 23.7071 9.40112 23.6408 9.39275C22.9827 9.30987 22.3312 9.58012 21.9251 10.1035C21.8841 10.1562 20.9119 11.4164 19.9897 13.2454C19.0856 15.0387 18.5349 16.7457 18.3436 18.3437C16.7457 18.5354 15.0383 19.086 13.2452 19.99C11.4163 20.9121 10.1562 21.8842 10.1034 21.9251C9.58006 22.3314 9.30981 22.9835 9.39269 23.6409C9.40106 23.7071 9.60456 25.2856 10.2458 27.231C10.8744 29.1382 11.6923 30.7347 12.6869 32.0001C11.6923 33.2655 10.8744 34.862 10.2458 36.7692C9.60456 38.7146 9.40106 40.293 9.39269 40.3594C9.30981 41.0165 9.57994 41.6688 10.1032 42.075C10.1559 42.1159 11.4161 43.0884 13.2451 44.0106C15.0384 44.9149 16.7456 45.4655 18.3436 45.6569C18.5349 47.2549 19.0856 48.962 19.9897 50.7552C20.9118 52.5841 21.8842 53.8441 21.9251 53.8969C22.2828 54.3577 22.8312 54.6222 23.4059 54.6221C23.4838 54.6221 23.5622 54.6173 23.6406 54.6074C23.7068 54.599 25.2853 54.3956 27.2306 53.7544C29.1379 53.1258 30.7344 52.308 31.9997 51.3135C33.2649 52.308 34.8616 53.1259 36.7688 53.7544C38.7142 54.3955 40.2927 54.599 40.3591 54.6074C41.0159 54.6901 41.6684 54.42 42.0747 53.8968C42.1156 53.844 43.0878 52.584 44.0101 50.755C44.9141 48.9619 45.4648 47.2546 45.6562 45.6566C47.2542 45.4652 48.9613 44.9146 50.7547 44.0104C52.5837 43.0881 53.8438 42.1156 53.8966 42.0747C54.4198 41.6685 54.6899 41.0164 54.6071 40.3591C54.5988 40.2929 54.3953 38.7144 53.7541 36.7691C53.1254 34.8619 52.3074 33.2654 51.3129 32C52.3074 30.7346 53.1254 29.1381 53.7541 27.2309C54.3954 25.2856 54.5989 23.7071 54.6073 23.6409ZM31.9999 47.6668C23.3613 47.6668 16.3333 40.6386 16.3333 32.0001C16.3333 23.3616 23.3613 16.3334 31.9999 16.3334C40.6384 16.3334 47.6666 23.3615 47.6666 32.0001C47.6666 40.6387 40.6386 47.6668 31.9999 47.6668Z" fill="#020B17"/>
<path d="M43.025 36.5704C45.5457 30.4892 42.6594 23.516 36.5782 20.9953C30.497 18.4746 23.5238 21.3611 21.0031 27.4423C18.4824 33.5236 21.3687 40.4968 27.4499 43.0175C33.5311 45.5381 40.5043 42.6517 43.025 36.5704Z" fill="#020B17"/>
</g>
<defs>
<clipPath id="clip0">
<rect width="64" height="64" fill="white"/>
</clipPath>
</defs>
</svg>
