<svg width="64" height="64" viewBox="0 0 64 64" fill="none" xmlns="http://www.w3.org/2000/svg">
<path d="M32 0C14.3269 0 0 14.3269 0 32C0 49.6731 14.3269 64 32 64C49.6731 64 64 49.6731 64 32C64 14.3269 49.6731 0 32 0ZM32 60C16.536 60 4 47.464 4 32C4 16.536 16.536 4 32 4C47.464 4 60 16.536 60 32C60 47.464 47.464 60 32 60Z" fill="#020B17"/>
<path d="M22 26C24.2091 26 26 24.2091 26 22C26 19.7909 24.2091 18 22 18C19.7909 18 18 19.7909 18 22C18 24.2091 19.7909 26 22 26Z" fill="#020B17"/>
<path d="M42 26C44.2091 26 46 24.2091 46 22C46 19.7909 44.2091 18 42 18C39.7909 18 38 19.7909 38 22C38 24.2091 39.7909 26 42 26Z" fill="#020B17"/>
<path d="M46 32C46 39.732 39.732 46 32 46C24.268 46 18 39.732 18 32H14C14 41.9411 22.0589 50 32 50C41.9411 50 50 41.9411 50 32H46Z" fill="#020B17"/>
</svg>
