<svg width="20" height="16" viewBox="0 0 20 16" fill="none" xmlns="http://www.w3.org/2000/svg">
<path d="M19.6968 1.89525C19.1483 2.71111 18.4754 3.40659 17.6781 3.9817C17.6859 4.13594 17.6899 4.31027 17.6899 4.50469C17.6899 5.58493 17.5324 6.66649 17.2174 7.74934C16.9024 8.83221 16.4213 9.86871 15.7739 10.8588C15.1266 11.849 14.3556 12.7261 13.4608 13.4903C12.566 14.2545 11.4903 14.8639 10.2339 15.3183C8.97753 15.7728 7.631 16 6.19435 16C3.95222 16 1.88743 15.3947 0 14.1841C0.334997 14.2214 0.656288 14.24 0.963872 14.24C2.83699 14.24 4.50999 13.6631 5.98286 12.5092C5.10951 12.4932 4.32735 12.2244 3.6364 11.7027C2.94545 11.181 2.46995 10.5144 2.2099 9.70286C2.46694 9.75182 2.72062 9.7763 2.97096 9.7763C3.3313 9.7763 3.68587 9.72931 4.03467 9.63531C3.10264 9.44864 2.32944 8.98443 1.71507 8.24267C1.10073 7.50092 0.793552 6.6448 0.793552 5.6743V5.62429C1.36564 5.94104 1.97586 6.10954 2.62421 6.12976C2.07208 5.76167 1.63433 5.28168 1.31094 4.68978C0.987541 4.09787 0.82584 3.45733 0.82584 2.76814C0.82584 2.04129 1.00798 1.36444 1.37226 0.737616C2.38582 1.98142 3.61397 2.97551 5.0567 3.71989C6.49946 4.46427 8.04725 4.87768 9.7001 4.96011C9.6296 4.66632 9.59429 4.35973 9.59416 4.04035C9.59416 2.92519 9.98879 1.97301 10.7781 1.18381C11.5673 0.394603 12.5196 0 13.6347 0C14.8022 0 15.7857 0.425125 16.585 1.27538C17.4982 1.09448 18.3534 0.767285 19.1503 0.293792C18.8433 1.26009 18.2516 2.00551 17.3754 2.53008C18.1807 2.43438 18.9545 2.22277 19.6968 1.89525H19.6968Z" fill="white"/>
</svg>
