<svg width="72" height="72" viewBox="0 0 72 72" fill="none" xmlns="http://www.w3.org/2000/svg">
<path d="M72 36C72 16.1491 55.8509 0 36 0C35.589 0 35.1832 0.0174897 34.7748 0.0314815V0.0227367C34.6568 0.0227367 34.5422 0.0376029 34.4242 0.0402264C34.2405 0.0489713 34.056 0.0585906 33.8724 0.0690845C33.4325 0.0900721 32.9944 0.117181 32.5633 0.168776C14.3197 1.90463 0 17.3096 0 36C0 55.8509 16.1491 72 36 72C55.8509 72 72 55.8509 72 36ZM40.5403 19.3017C40.5403 21.8097 38.5072 23.8429 36 23.8429C33.492 23.8429 31.4588 21.8097 31.4588 19.3017C31.4588 16.7936 33.492 14.7605 36 14.7605C38.5072 14.7605 40.5403 16.7945 40.5403 19.3017ZM51.3429 53.2125C51.3429 62.0037 43.9124 69.1553 34.7792 69.1553V69.185C17.028 68.5405 2.78349 53.9077 2.78349 36C2.78349 21.4223 12.228 9.01596 25.3173 4.55608C20.4385 7.71822 17.1924 13.2231 17.1924 19.4853C17.1924 29.2595 25.0777 37.212 34.7801 37.2418V37.2698C43.9132 37.2698 51.3429 44.4213 51.3429 53.2125ZM36 58.3178C33.492 58.3178 31.4588 56.2837 31.4588 53.7766C31.4588 51.2685 33.492 49.2354 36 49.2354C38.5072 49.2354 40.5403 51.2685 40.5403 53.7766C40.5403 56.2828 38.5072 58.3178 36 58.3178Z" fill="#020B17"/>
</svg>
