<svg width="14" height="16" viewBox="0 0 14 16" fill="none" xmlns="http://www.w3.org/2000/svg">
<path d="M11.9121 1.776V6.784H10.8881V6.224C10.4934 6.64 10.0987 6.848 9.70408 6.848C9.22408 6.848 8.98408 6.54933 8.98408 5.952V1.776H10.0081V5.616C10.0081 5.84 10.0987 5.952 10.2801 5.952C10.4614 5.952 10.6641 5.824 10.8881 5.568V1.776H11.9121ZM8.12008 2.944V5.536C8.12008 5.984 7.98675 6.32533 7.72008 6.56C7.45342 6.79467 7.09075 6.912 6.63208 6.912C6.19475 6.912 5.84008 6.78667 5.56808 6.536C5.29608 6.28533 5.16008 5.94667 5.16008 5.52V2.928C5.16008 2.512 5.30675 2.19467 5.60008 1.976C5.89342 1.75733 6.25342 1.648 6.68008 1.648C7.08542 1.648 7.42675 1.76533 7.70408 2C7.98142 2.23467 8.12008 2.54933 8.12008 2.944ZM7.08008 5.616V2.88C7.08008 2.77333 7.03208 2.68533 6.93608 2.616C6.84008 2.54667 6.73875 2.512 6.63208 2.512C6.52542 2.512 6.42942 2.54667 6.34408 2.616C6.25875 2.68533 6.21608 2.77333 6.21608 2.88V5.616C6.21608 5.89333 6.35475 6.032 6.63208 6.032C6.93075 6.032 7.08008 5.89333 7.08008 5.616ZM4.04008 0H5.20808L4.32808 2.64C4.28542 2.768 4.23208 2.91467 4.16808 3.08C4.10408 3.24533 4.04808 3.39467 4.00008 3.528C3.95208 3.66133 3.91208 3.808 3.88008 3.968V6.784H2.72808V4.096C2.70675 3.968 2.55208 3.51467 2.26408 2.736L1.35208 0H2.52008L3.25608 2.704H3.33608L4.04008 0ZM13.8161 11.824C13.8161 12.3467 13.7841 13.12 13.7201 14.144C13.6774 14.6773 13.4721 15.1013 13.1041 15.416C12.7361 15.7307 12.2854 15.8987 11.7521 15.92C10.6961 15.9733 9.11208 16 7.00008 16C4.87742 16 3.29342 15.9733 2.24808 15.92C1.71475 15.8987 1.26408 15.7307 0.896082 15.416C0.528082 15.1013 0.322749 14.6773 0.280082 14.144C0.216082 13.12 0.184082 12.3467 0.184082 11.824C0.184082 11.3013 0.216082 10.528 0.280082 9.504C0.322749 8.97067 0.528082 8.54667 0.896082 8.232C1.26408 7.91733 1.71475 7.74933 2.24808 7.728C3.29342 7.67467 4.87742 7.648 7.00008 7.648C9.12275 7.648 10.7067 7.67467 11.7521 7.728C12.2854 7.74933 12.7361 7.91733 13.1041 8.232C13.4721 8.54667 13.6774 8.97067 13.7201 9.504C13.7841 10.528 13.8161 11.3013 13.8161 11.824ZM12.6801 13.28V12.976H11.8321C11.8321 12.9973 11.8347 13.0667 11.8401 13.184C11.8454 13.3013 11.8454 13.384 11.8401 13.432C11.8347 13.48 11.8214 13.5413 11.8001 13.616C11.7787 13.6907 11.7414 13.744 11.6881 13.776C11.6347 13.808 11.5601 13.824 11.4641 13.824C11.3574 13.824 11.2747 13.792 11.2161 13.728C11.1574 13.664 11.1254 13.6 11.1201 13.536C11.1147 13.472 11.1121 13.3813 11.1121 13.264V12.496H12.6801V11.472C12.6801 11.0987 12.5787 10.8053 12.3761 10.592C12.1734 10.3787 11.8854 10.272 11.5121 10.272C11.1494 10.272 10.8481 10.3813 10.6081 10.6C10.3681 10.8187 10.2481 11.1093 10.2481 11.472V13.28C10.2481 13.664 10.3521 13.9707 10.5601 14.2C10.7681 14.4293 11.0641 14.544 11.4481 14.544C12.2694 14.544 12.6801 14.1227 12.6801 13.28ZM9.62408 13.584V11.344C9.62408 10.672 9.35742 10.336 8.82408 10.336C8.55742 10.336 8.31208 10.4587 8.08808 10.704V8.944H7.25608V14.432H8.08808V14.112C8.32275 14.3573 8.58408 14.48 8.87208 14.48C9.37342 14.48 9.62408 14.1813 9.62408 13.584ZM5.62408 14.432H6.44008V10.384H5.62408V13.456C5.44275 13.6587 5.27742 13.76 5.12808 13.76C4.98942 13.76 4.92008 13.6693 4.92008 13.488V10.384H4.08808V13.792C4.08808 14.2613 4.28008 14.496 4.66408 14.496C4.98408 14.496 5.30408 14.3253 5.62408 13.984V14.432ZM3.12808 9.744H4.10408V8.944H1.24008V9.744H2.20008V14.432H3.12808V9.744ZM11.8321 11.424V11.872H11.1121V11.424C11.1121 11.136 11.2347 10.992 11.4801 10.992C11.7147 10.992 11.8321 11.136 11.8321 11.424ZM8.77608 11.376V13.504C8.77608 13.728 8.68008 13.84 8.48808 13.84C8.33875 13.84 8.20542 13.7813 8.08808 13.664V11.136C8.19475 11.0293 8.31208 10.976 8.44008 10.976C8.66408 10.976 8.77608 11.1093 8.77608 11.376Z" fill="white"/>
</svg>
